<svg xmlns="http://www.w3.org/2000/svg" xmlns:xlink="http://www.w3.org/1999/xlink" width="500" zoomAndPan="magnify" viewBox="0 0 375 374.999991" height="500" preserveAspectRatio="xMidYMid meet" version="1.0"><defs><clipPath id="27e25ddd09"><path d="M 8.15625 13.632812 L 366.84375 13.632812 L 366.84375 360.003906 L 8.15625 360.003906 Z M 8.15625 13.632812 " clip-rule="nonzero"/></clipPath><clipPath id="9cbe7752d4"><path d="M 187.5 13.632812 C 88.449219 13.632812 8.15625 91.171875 8.15625 186.820312 C 8.15625 282.464844 88.449219 360.003906 187.5 360.003906 C 286.550781 360.003906 366.84375 282.464844 366.84375 186.820312 C 366.84375 91.171875 286.550781 13.632812 187.5 13.632812 Z M 187.5 13.632812 " clip-rule="nonzero"/></clipPath><clipPath id="6e15592921"><path d="M 8.15625 13.632812 L 366.65625 13.632812 L 366.65625 360.003906 L 8.15625 360.003906 Z M 8.15625 13.632812 " clip-rule="nonzero"/></clipPath><clipPath id="dc4c211a90"><path d="M 187.5 13.632812 C 88.453125 13.632812 8.15625 91.171875 8.15625 186.816406 C 8.15625 282.464844 88.453125 360.003906 187.5 360.003906 C 286.546875 360.003906 366.84375 282.464844 366.84375 186.816406 C 366.84375 91.171875 286.546875 13.632812 187.5 13.632812 Z M 187.5 13.632812 " clip-rule="nonzero"/></clipPath><clipPath id="8b723afa12"><path d="M 56.25 150 L 102 150 L 102 220 L 56.25 220 Z M 56.25 150 " clip-rule="nonzero"/></clipPath><clipPath id="c9aac385ff"><path d="M 104 133.03125 L 165 133.03125 L 165 190 L 104 190 Z M 104 133.03125 " clip-rule="nonzero"/></clipPath><clipPath id="944b96ab1c"><path d="M 97 192 L 166 192 L 166 241.78125 L 97 241.78125 Z M 97 192 " clip-rule="nonzero"/></clipPath><clipPath id="d24d654504"><path d="M 252 133.03125 L 274 133.03125 L 274 184 L 252 184 Z M 252 133.03125 " clip-rule="nonzero"/></clipPath><clipPath id="3eb08b4380"><path d="M 263 191 L 318.75 191 L 318.75 230 L 263 230 Z M 263 191 " clip-rule="nonzero"/></clipPath></defs><g clip-path="url(#27e25ddd09)"><g clip-path="url(#9cbe7752d4)"><path fill="#ffffff" d="M 8.15625 13.632812 L 366.84375 13.632812 L 366.84375 360.003906 L 8.15625 360.003906 Z M 8.15625 13.632812 " fill-opacity="1" fill-rule="nonzero"/></g></g><g clip-path="url(#6e15592921)"><g clip-path="url(#dc4c211a90)"><path stroke-linecap="butt" transform="matrix(0.75, 0, 0, 0.75, 8.156628, 13.632421)" fill="none" stroke-linejoin="miter" d="M 239.124511 0.000521967 C 107.062003 0.000521967 -0.000504486 103.385945 -0.000504486 230.911995 C -0.000504486 358.443254 107.062003 461.828677 239.124511 461.828677 C 371.18702 461.828677 478.249527 358.443254 478.249527 230.911995 C 478.249527 103.385945 371.18702 0.000521967 239.124511 0.000521967 Z M 239.124511 0.000521967 " stroke="#000000" stroke-width="8" stroke-opacity="1" stroke-miterlimit="4"/></g></g><g clip-path="url(#8b723afa12)"><path fill="#15aa5a" d="M 76.832031 194.4375 C 74.441406 197.726562 70.917969 206.996094 73.65625 214.179688 C 73.753906 214.445312 73.484375 214.699219 73.226562 214.574219 C 36.289062 197.890625 66.90625 162.90625 96.433594 150.136719 C 91.25 169.078125 103.566406 187.542969 101.296875 206.535156 C 100.191406 213.859375 93.007812 220.632812 85.382812 219.882812 C 81.628906 219.445312 79.152344 203.066406 78.34375 194.851562 C 78.269531 194.085938 77.289062 193.8125 76.832031 194.4375 Z M 76.832031 194.4375 " fill-opacity="1" fill-rule="nonzero"/></g><g clip-path="url(#c9aac385ff)"><path fill="#15aa5a" d="M 132.902344 153.101562 C 130.921875 149.539062 123.964844 142.4375 116.273438 141.894531 C 115.992188 141.878906 115.878906 141.515625 116.09375 141.332031 C 146.867188 114.851562 165.800781 157.394531 164.972656 189.578125 C 149.914062 176.886719 127.910156 180.273438 111.570312 170.195312 C 105.363281 166.101562 102.226562 156.734375 106.132812 150.132812 C 108.113281 146.910156 124.074219 151.574219 131.886719 154.304688 C 132.613281 154.558594 133.273438 153.777344 132.902344 153.109375 Z M 132.902344 153.101562 " fill-opacity="1" fill-rule="nonzero"/></g><g clip-path="url(#944b96ab1c)"><path fill="#15aa5a" d="M 145.441406 220.34375 C 149.484375 220.839844 159.3125 219.421875 164.273438 213.546875 C 164.457031 213.332031 164.8125 213.445312 164.835938 213.726562 C 168.128906 254.066406 122.636719 244.304688 97.128906 224.710938 C 116.234375 220.046875 126.433594 200.339844 144.179688 193.113281 C 151.136719 190.523438 160.542969 193.507812 163.582031 200.527344 C 165.015625 204.019531 151.871094 214.121094 145.070312 218.8125 C 144.433594 219.246094 144.671875 220.238281 145.441406 220.335938 Z M 145.441406 220.34375 " fill-opacity="1" fill-rule="nonzero"/></g><path fill="#01130e" d="M 193.929688 144.449219 C 196.398438 144.449219 198.496094 144.804688 200.21875 145.503906 C 201.9375 146.203125 203.332031 147.167969 204.394531 148.402344 C 205.460938 149.640625 206.234375 151.097656 206.722656 152.796875 C 207.210938 154.492188 207.449219 156.332031 207.449219 158.308594 L 207.449219 181.320312 C 207.449219 181.699219 207.195312 182.03125 206.820312 182.121094 C 206.417969 182.21875 205.921875 182.316406 205.335938 182.425781 C 204.414062 182.597656 203.347656 182.777344 202.144531 182.96875 C 200.929688 183.160156 199.585938 183.324219 198.105469 183.4375 C 196.628906 183.5625 195.121094 183.621094 193.566406 183.621094 C 191.578125 183.621094 189.753906 183.40625 188.078125 182.96875 C 186.414062 182.53125 184.953125 181.847656 183.722656 180.902344 C 182.484375 179.960938 181.519531 178.75 180.816406 177.273438 C 180.117188 175.800781 179.761719 173.996094 179.761719 171.871094 C 179.761719 169.746094 180.148438 168.097656 180.925781 166.644531 C 181.699219 165.195312 182.789062 164 184.191406 163.054688 C 185.59375 162.113281 187.269531 161.421875 189.210938 160.984375 C 191.148438 160.550781 193.253906 160.335938 195.53125 160.335938 C 196.207031 160.335938 196.925781 160.367188 197.679688 160.441406 C 198.429688 160.515625 199.15625 160.613281 199.855469 160.730469 C 200.253906 160.796875 201.054688 160.976562 201.707031 161.140625 C 202.226562 161.273438 202.730469 160.878906 202.730469 160.34375 L 202.730469 159.097656 C 202.730469 157.796875 202.628906 156.519531 202.441406 155.292969 C 202.242188 154.054688 201.820312 152.945312 201.167969 151.953125 C 200.515625 150.964844 199.59375 150.167969 198.40625 149.558594 C 197.214844 148.957031 195.65625 148.652344 193.714844 148.652344 C 190.953125 148.652344 188.898438 148.847656 187.542969 149.226562 C 186.71875 149.464844 186.03125 149.671875 185.472656 149.855469 C 184.992188 150.011719 184.488281 149.699219 184.40625 149.195312 L 184.011719 146.683594 C 183.953125 146.292969 184.160156 145.914062 184.53125 145.785156 C 185.324219 145.496094 186.386719 145.214844 187.726562 144.953125 C 189.441406 144.613281 191.511719 144.441406 193.9375 144.441406 Z M 194.367188 179.417969 C 196.207031 179.417969 197.816406 179.359375 199.203125 179.234375 C 200.269531 179.144531 201.210938 179.03125 202.035156 178.890625 C 202.441406 178.824219 202.730469 178.476562 202.730469 178.074219 L 202.730469 166.117188 C 202.730469 165.773438 202.515625 165.460938 202.183594 165.34375 C 201.671875 165.171875 201.011719 164.980469 200.179688 164.792969 C 199.015625 164.527344 197.414062 164.398438 195.382812 164.398438 C 194.21875 164.398438 193.007812 164.480469 191.753906 164.652344 C 190.488281 164.824219 189.324219 165.1875 188.261719 165.738281 C 187.195312 166.300781 186.320312 167.058594 185.644531 168.023438 C 184.96875 168.984375 184.628906 170.273438 184.628906 171.871094 C 184.628906 173.269531 184.859375 174.457031 185.324219 175.421875 C 185.785156 176.386719 186.4375 177.160156 187.289062 177.746094 C 188.136719 178.320312 189.152344 178.75 190.339844 179.015625 C 191.53125 179.277344 192.875 179.410156 194.375 179.410156 Z M 194.367188 179.417969 " fill-opacity="1" fill-rule="nonzero"/><path fill="#01130e" d="M 235.054688 183.621094 C 232.148438 183.621094 229.582031 183.160156 227.355469 182.246094 C 225.125 181.328125 223.269531 180.011719 221.792969 178.289062 C 220.316406 176.574219 219.183594 174.515625 218.417969 172.125 C 217.640625 169.730469 217.253906 167.082031 217.253906 164.183594 C 217.253906 161.28125 217.648438 158.546875 218.449219 156.132812 C 219.25 153.71875 220.398438 151.632812 221.898438 149.894531 C 223.402344 148.15625 225.21875 146.816406 227.347656 145.867188 C 229.476562 144.925781 231.878906 144.449219 234.542969 144.449219 C 236.582031 144.449219 238.480469 144.621094 240.246094 144.960938 C 241.640625 145.234375 242.789062 145.554688 243.6875 145.941406 C 244.074219 146.105469 244.265625 146.535156 244.140625 146.9375 L 243.382812 149.425781 C 243.242188 149.886719 242.738281 150.136719 242.292969 149.953125 C 241.542969 149.640625 240.714844 149.378906 239.832031 149.164062 C 238.621094 148.875 237.003906 148.726562 234.964844 148.726562 C 230.796875 148.726562 227.636719 150.070312 225.480469 152.753906 C 223.328125 155.441406 222.246094 159.246094 222.246094 164.183594 C 222.246094 166.40625 222.484375 168.453125 222.972656 170.3125 C 223.460938 172.175781 224.242188 173.773438 225.332031 175.101562 C 226.421875 176.4375 227.824219 177.472656 229.550781 178.222656 C 231.265625 178.972656 233.363281 179.34375 235.839844 179.34375 C 237.878906 179.34375 239.578125 179.113281 240.964844 178.652344 C 241.832031 178.363281 242.539062 178.101562 243.109375 177.859375 C 243.570312 177.664062 244.101562 177.933594 244.222656 178.421875 L 244.835938 180.867188 C 244.933594 181.253906 244.742188 181.660156 244.371094 181.824219 C 243.523438 182.203125 242.359375 182.574219 240.890625 182.9375 C 239.023438 183.398438 237.078125 183.628906 235.039062 183.628906 Z M 235.054688 183.621094 " fill-opacity="1" fill-rule="nonzero"/><g clip-path="url(#d24d654504)"><path fill="#01130e" d="M 258.1875 145.3125 L 271.507812 145.3125 C 271.964844 145.3125 272.335938 145.683594 272.335938 146.136719 L 272.335938 148.476562 C 272.335938 148.929688 271.964844 149.300781 271.507812 149.300781 L 258.1875 149.300781 C 257.734375 149.300781 257.363281 149.671875 257.363281 150.125 L 257.363281 169.25 C 257.363281 171.375 257.546875 173.105469 257.910156 174.441406 C 258.269531 175.777344 258.792969 176.796875 259.46875 177.523438 C 260.144531 178.246094 260.96875 178.734375 261.9375 178.972656 C 262.902344 179.210938 263.972656 179.335938 265.128906 179.335938 C 267.117188 179.335938 268.710938 179.105469 269.925781 178.644531 C 270.683594 178.355469 271.34375 178.082031 271.890625 177.820312 C 272.351562 177.605469 272.894531 177.835938 273.035156 178.332031 L 273.730469 180.660156 C 273.84375 181.039062 273.679688 181.453125 273.324219 181.625 C 272.621094 181.980469 271.632812 182.359375 270.363281 182.78125 C 268.660156 183.332031 266.820312 183.613281 264.839844 183.613281 C 262.511719 183.613281 260.566406 183.308594 258.988281 182.707031 C 257.414062 182.105469 256.160156 181.179688 255.210938 179.945312 C 254.261719 178.710938 253.601562 177.175781 253.210938 175.339844 C 252.824219 173.503906 252.632812 171.328125 252.632812 168.8125 L 252.632812 134.972656 C 252.632812 134.578125 252.914062 134.230469 253.3125 134.167969 L 256.382812 133.597656 C 256.886719 133.507812 257.355469 133.894531 257.355469 134.40625 L 257.355469 144.492188 C 257.355469 144.945312 257.726562 145.3125 258.179688 145.3125 Z M 258.1875 145.3125 " fill-opacity="1" fill-rule="nonzero"/></g><path fill="#182b25" d="M 181.558594 193.632812 C 181.558594 193.261719 181.800781 192.929688 182.164062 192.832031 C 183.914062 192.363281 186.082031 191.925781 188.683594 191.515625 C 191.585938 191.050781 194.640625 190.820312 197.835938 190.820312 C 201.027344 190.820312 203.777344 191.242188 205.9375 192.089844 C 208.09375 192.941406 209.800781 194.132812 211.0625 195.683594 C 212.328125 197.234375 213.21875 199.070312 213.753906 201.195312 C 214.292969 203.320312 214.554688 205.695312 214.554688 208.304688 L 214.554688 229.027344 C 214.554688 229.480469 214.183594 229.851562 213.730469 229.851562 L 204.554688 229.851562 C 204.097656 229.851562 203.726562 229.480469 203.726562 229.027344 L 203.726562 209.617188 C 203.726562 206.132812 203.265625 203.667969 202.347656 202.21875 C 201.425781 200.765625 199.707031 200.042969 197.191406 200.042969 C 196.414062 200.042969 195.589844 200.074219 194.722656 200.148438 C 194.152344 200.199219 193.617188 200.25 193.132812 200.304688 C 192.710938 200.355469 192.394531 200.703125 192.394531 201.121094 L 192.394531 229.027344 C 192.394531 229.480469 192.023438 229.851562 191.570312 229.851562 L 182.394531 229.851562 C 181.941406 229.851562 181.570312 229.480469 181.570312 229.027344 L 181.570312 193.632812 Z M 181.558594 193.632812 " fill-opacity="1" fill-rule="nonzero"/><path fill="#182b25" d="M 260.113281 210.703125 C 260.113281 213.703125 259.675781 216.445312 258.808594 218.933594 C 257.933594 221.421875 256.679688 223.558594 255.027344 225.320312 C 253.378906 227.082031 251.40625 228.453125 249.101562 229.414062 C 246.800781 230.378906 244.226562 230.867188 241.363281 230.867188 C 238.5 230.867188 235.996094 230.378906 233.695312 229.414062 C 231.390625 228.453125 229.421875 227.082031 227.769531 225.320312 C 226.117188 223.558594 224.839844 221.429688 223.914062 218.933594 C 222.992188 216.445312 222.535156 213.703125 222.535156 210.703125 C 222.535156 207.703125 223.007812 204.96875 223.957031 202.503906 C 224.898438 200.042969 226.210938 197.933594 227.875 196.195312 C 229.542969 194.453125 231.53125 193.09375 233.835938 192.132812 C 236.136719 191.167969 238.636719 190.679688 241.355469 190.679688 C 244.070312 190.679688 246.644531 191.167969 248.945312 192.132812 C 251.25 193.09375 253.222656 194.453125 254.871094 196.195312 C 256.515625 197.933594 257.800781 200.042969 258.726562 202.503906 C 259.640625 204.96875 260.105469 207.703125 260.105469 210.703125 Z M 249.070312 210.703125 C 249.070312 207.367188 248.402344 204.746094 247.074219 202.835938 C 245.734375 200.921875 243.835938 199.96875 241.371094 199.96875 C 238.902344 199.96875 236.988281 200.921875 235.625 202.835938 C 234.273438 204.746094 233.585938 207.367188 233.585938 210.703125 C 233.585938 214.039062 234.265625 216.683594 235.625 218.644531 C 236.980469 220.605469 238.894531 221.585938 241.371094 221.585938 C 243.847656 221.585938 245.746094 220.605469 247.074219 218.644531 C 248.402344 216.683594 249.070312 214.039062 249.070312 210.703125 Z M 249.070312 210.703125 " fill-opacity="1" fill-rule="nonzero"/><g clip-path="url(#3eb08b4380)"><path fill="#182b25" d="M 290.886719 207.941406 C 289.921875 211.617188 288.890625 215.269531 287.800781 218.902344 C 286.769531 222.335938 285.679688 225.804688 284.539062 229.285156 C 284.433594 229.621094 284.109375 229.851562 283.757812 229.851562 L 276.476562 229.851562 C 276.148438 229.851562 275.851562 229.664062 275.71875 229.359375 C 274.902344 227.429688 274.027344 225.179688 273.085938 222.601562 C 272.0625 219.800781 271.003906 216.734375 269.917969 213.421875 C 268.828125 210.109375 267.703125 206.601562 266.566406 202.898438 C 265.535156 199.546875 264.527344 196.160156 263.554688 192.75 C 263.40625 192.222656 263.800781 191.695312 264.34375 191.695312 L 273.992188 191.695312 C 274.382812 191.695312 274.710938 191.957031 274.792969 192.328125 C 275.140625 193.894531 275.519531 195.574219 275.933594 197.386719 C 276.394531 199.449219 276.882812 201.558594 277.394531 203.734375 C 277.90625 205.90625 278.441406 208.097656 279.003906 210.300781 C 279.441406 212.003906 279.878906 213.660156 280.332031 215.269531 C 280.445312 215.664062 281.007812 215.664062 281.125 215.269531 C 281.609375 213.578125 282.097656 211.863281 282.578125 210.117188 C 283.179688 207.894531 283.765625 205.703125 284.316406 203.550781 C 284.871094 201.402344 285.40625 199.316406 285.917969 197.3125 C 286.363281 195.550781 286.769531 193.886719 287.125 192.328125 C 287.207031 191.949219 287.542969 191.695312 287.925781 191.695312 L 294.453125 191.695312 C 294.839844 191.695312 295.171875 191.957031 295.253906 192.328125 C 295.609375 193.886719 295.996094 195.550781 296.417969 197.3125 C 296.902344 199.324219 297.40625 201.402344 297.941406 203.550781 C 298.480469 205.703125 299.03125 207.894531 299.609375 210.117188 C 300.0625 211.863281 300.535156 213.578125 301.023438 215.269531 C 301.136719 215.664062 301.707031 215.664062 301.8125 215.269531 C 302.269531 213.660156 302.722656 212.003906 303.175781 210.300781 C 303.761719 208.097656 304.304688 205.90625 304.816406 203.734375 C 305.328125 201.558594 305.816406 199.441406 306.277344 197.386719 C 306.683594 195.582031 307.0625 193.894531 307.417969 192.328125 C 307.5 191.949219 307.839844 191.695312 308.21875 191.695312 L 317.726562 191.695312 C 318.277344 191.695312 318.675781 192.222656 318.519531 192.75 C 317.542969 196.160156 316.539062 199.546875 315.496094 202.898438 C 314.359375 206.601562 313.234375 210.109375 312.144531 213.421875 C 311.058594 216.734375 309.984375 219.792969 308.945312 222.601562 C 307.988281 225.179688 307.09375 227.4375 306.277344 229.359375 C 306.148438 229.664062 305.847656 229.851562 305.519531 229.851562 L 298.230469 229.851562 C 297.878906 229.851562 297.554688 229.621094 297.449219 229.285156 C 296.300781 225.796875 295.179688 222.335938 294.074219 218.902344 C 292.910156 215.277344 291.84375 211.625 290.878906 207.941406 Z M 290.886719 207.941406 " fill-opacity="1" fill-rule="nonzero"/></g></svg>