<svg xmlns="http://www.w3.org/2000/svg" xmlns:xlink="http://www.w3.org/1999/xlink" width="500" zoomAndPan="magnify" viewBox="0 0 375 374.999991" height="500" preserveAspectRatio="xMidYMid meet" version="1.0"><defs><clipPath id="43451d5198"><path d="M 8.15625 13.632812 L 366.84375 13.632812 L 366.84375 360.003906 L 8.15625 360.003906 Z M 8.15625 13.632812 " clip-rule="nonzero"/></clipPath><clipPath id="766dc9bf1a"><path d="M 187.5 13.632812 C 88.449219 13.632812 8.15625 91.171875 8.15625 186.820312 C 8.15625 282.464844 88.449219 360.003906 187.5 360.003906 C 286.550781 360.003906 366.84375 282.464844 366.84375 186.820312 C 366.84375 91.171875 286.550781 13.632812 187.5 13.632812 Z M 187.5 13.632812 " clip-rule="nonzero"/></clipPath><clipPath id="4a971ac773"><path d="M 8.15625 13.632812 L 366.65625 13.632812 L 366.65625 360.003906 L 8.15625 360.003906 Z M 8.15625 13.632812 " clip-rule="nonzero"/></clipPath><clipPath id="3058cf3274"><path d="M 187.5 13.632812 C 88.453125 13.632812 8.15625 91.171875 8.15625 186.816406 C 8.15625 282.464844 88.453125 360.003906 187.5 360.003906 C 286.546875 360.003906 366.84375 282.464844 366.84375 186.816406 C 366.84375 91.171875 286.546875 13.632812 187.5 13.632812 Z M 187.5 13.632812 " clip-rule="nonzero"/></clipPath><clipPath id="593ed23249"><path d="M 69 177 L 122.765625 177 L 122.765625 226.765625 L 69 226.765625 Z M 69 177 " clip-rule="nonzero"/></clipPath><clipPath id="071934286a"><path d="M 89 148.015625 L 122.765625 148.015625 L 122.765625 188 L 89 188 Z M 89 148.015625 " clip-rule="nonzero"/></clipPath><clipPath id="21d4271526"><path d="M 43.464844 148.015625 L 97 148.015625 L 97 197 L 43.464844 197 Z M 43.464844 148.015625 " clip-rule="nonzero"/></clipPath><clipPath id="59f7e7d3e5"><path d="M 43.464844 187 L 77 187 L 77 226.765625 L 43.464844 226.765625 Z M 43.464844 187 " clip-rule="nonzero"/></clipPath><clipPath id="02c3dbb547"><path d="M 280 169 L 331.449219 169 L 331.449219 205 L 280 205 Z M 280 169 " clip-rule="nonzero"/></clipPath></defs><g clip-path="url(#43451d5198)"><g clip-path="url(#766dc9bf1a)"><path fill="#ffffff" d="M 8.15625 13.632812 L 366.84375 13.632812 L 366.84375 360.003906 L 8.15625 360.003906 Z M 8.15625 13.632812 " fill-opacity="1" fill-rule="nonzero"/></g></g><g clip-path="url(#4a971ac773)"><g clip-path="url(#3058cf3274)"><path stroke-linecap="butt" transform="matrix(0.75, 0, 0, 0.75, 8.156628, 13.632362)" fill="none" stroke-linejoin="miter" d="M 239.124511 0.000600047 C 107.062003 0.000600047 -0.000504486 103.386024 -0.000504486 230.912074 C -0.000504486 358.443332 107.062003 461.828755 239.124511 461.828755 C 371.18702 461.828755 478.249527 358.443332 478.249527 230.912074 C 478.249527 103.386024 371.18702 0.000600047 239.124511 0.000600047 Z M 239.124511 0.000600047 " stroke="#000000" stroke-width="8" stroke-opacity="1" stroke-miterlimit="4"/></g></g><g clip-path="url(#593ed23249)"><path fill="#fa0476" d="M 117.855469 221.875 C 111.574219 228.113281 101.386719 228.113281 95.101562 221.875 C 95.003906 221.78125 94.90625 221.679688 94.808594 221.582031 L 80.773438 207.636719 L 80.667969 207.539062 L 74.402344 201.3125 C 73.882812 200.796875 73.40625 200.253906 72.972656 199.6875 C 68.191406 193.460938 68.632812 184.542969 74.308594 178.8125 C 75.484375 177.628906 77.410156 177.445312 78.707031 178.496094 C 80.203125 179.714844 80.289062 181.910156 78.949219 183.234375 C 78.738281 183.445312 78.539062 183.664062 78.351562 183.890625 C 78.285156 183.96875 78.21875 184.046875 78.160156 184.132812 C 77.597656 184.84375 77.152344 185.621094 76.820312 186.429688 C 76.722656 186.679688 76.632812 186.929688 76.554688 187.183594 C 76.542969 187.214844 76.53125 187.25 76.523438 187.285156 C 76.457031 187.503906 76.402344 187.726562 76.351562 187.953125 C 76.304688 188.179688 76.257812 188.40625 76.222656 188.636719 C 76.175781 188.941406 76.148438 189.25 76.136719 189.554688 C 76.128906 189.648438 76.128906 189.746094 76.128906 189.839844 C 76.128906 189.898438 76.125 189.957031 76.125 190.015625 C 76.125 190.074219 76.128906 190.136719 76.128906 190.191406 C 76.128906 190.289062 76.128906 190.378906 76.136719 190.472656 C 76.136719 190.507812 76.140625 190.546875 76.140625 190.582031 C 76.140625 190.59375 76.140625 190.609375 76.144531 190.625 C 76.148438 190.726562 76.15625 190.828125 76.167969 190.933594 C 76.171875 191.007812 76.1875 191.082031 76.195312 191.15625 C 76.207031 191.234375 76.214844 191.3125 76.222656 191.390625 C 76.242188 191.511719 76.261719 191.628906 76.28125 191.75 C 76.289062 191.78125 76.296875 191.8125 76.300781 191.847656 C 76.320312 191.941406 76.34375 192.039062 76.363281 192.140625 C 76.375 192.191406 76.386719 192.246094 76.402344 192.296875 C 76.417969 192.371094 76.441406 192.441406 76.460938 192.515625 C 76.480469 192.589844 76.496094 192.667969 76.523438 192.746094 C 76.550781 192.835938 76.582031 192.933594 76.617188 193.027344 C 76.632812 193.078125 76.648438 193.128906 76.664062 193.183594 C 76.703125 193.296875 76.746094 193.40625 76.789062 193.511719 C 76.804688 193.550781 76.816406 193.585938 76.832031 193.621094 C 76.875 193.730469 76.925781 193.84375 76.976562 193.953125 C 76.992188 193.984375 77.003906 194.015625 77.015625 194.050781 C 77.078125 194.175781 77.140625 194.300781 77.203125 194.425781 C 77.210938 194.4375 77.21875 194.457031 77.226562 194.472656 C 77.371094 194.738281 77.523438 194.996094 77.691406 195.25 C 77.699219 195.265625 77.707031 195.277344 77.714844 195.289062 C 77.777344 195.386719 77.847656 195.480469 77.917969 195.574219 C 77.941406 195.609375 77.964844 195.648438 77.988281 195.683594 C 78.164062 195.917969 78.351562 196.148438 78.550781 196.367188 C 78.570312 196.386719 78.589844 196.414062 78.609375 196.4375 C 78.707031 196.542969 78.808594 196.644531 78.910156 196.75 C 78.925781 196.761719 78.9375 196.777344 78.949219 196.789062 C 78.949219 196.789062 78.984375 196.824219 79 196.839844 L 88.582031 206.359375 L 99.65625 217.355469 C 105.03125 222.695312 115.160156 220.417969 116.488281 210.53125 C 116.753906 208.546875 116.074219 206.546875 114.644531 205.128906 L 109.164062 199.6875 L 104.203125 194.757812 C 104.203125 194.757812 104.195312 194.75 104.175781 194.730469 C 104.15625 194.710938 104.136719 194.691406 104.117188 194.671875 C 103.265625 193.78125 102.960938 192.503906 103.316406 191.316406 C 103.851562 189.527344 104.167969 187.664062 104.246094 185.757812 C 104.625 186.132812 104.941406 186.449219 105.203125 186.707031 L 105.335938 186.835938 C 105.375 186.882812 105.414062 186.917969 105.453125 186.957031 C 105.527344 187.03125 105.597656 187.097656 105.65625 187.160156 C 105.722656 187.222656 105.785156 187.285156 105.828125 187.332031 C 105.894531 187.398438 106.253906 187.753906 106.253906 187.753906 L 117.5625 198.984375 L 117.855469 199.273438 C 124.136719 205.515625 124.136719 215.632812 117.855469 221.875 Z M 117.855469 221.875 " fill-opacity="1" fill-rule="nonzero"/></g><g clip-path="url(#071934286a)"><path fill="#6ed29d" d="M 117.757812 175.488281 C 117.664062 175.582031 117.5625 175.679688 117.464844 175.777344 L 105.828125 187.332031 C 105.785156 187.285156 105.722656 187.222656 105.65625 187.160156 C 105.597656 187.097656 105.527344 187.03125 105.453125 186.957031 C 105.414062 186.917969 105.375 186.882812 105.335938 186.835938 L 105.203125 186.707031 C 104.941406 186.449219 104.625 186.132812 104.246094 185.757812 C 104.253906 185.480469 104.269531 185.207031 104.273438 184.929688 L 104.273438 184.773438 C 104.277344 183.785156 104.210938 182.816406 104.089844 181.859375 C 103.957031 180.820312 104.328125 179.78125 105.074219 179.042969 L 113.207031 170.964844 C 118.316406 165.890625 116.503906 156.558594 107.773438 154.507812 C 105.070312 153.871094 102.226562 154.753906 100.261719 156.707031 L 94.835938 162.101562 C 94.257812 162.675781 93.496094 162.964844 92.738281 162.964844 C 92.023438 162.964844 91.3125 162.710938 90.742188 162.199219 C 89.285156 160.882812 89.230469 158.625 90.621094 157.242188 L 94.710938 153.179688 L 95.003906 152.886719 C 101.289062 146.648438 111.476562 146.648438 117.757812 152.886719 C 124.039062 159.128906 124.039062 169.246094 117.757812 175.488281 Z M 117.757812 175.488281 " fill-opacity="1" fill-rule="nonzero"/></g><path fill="#3d9546" d="M 104.144531 185.65625 C 104.179688 185.691406 104.210938 185.722656 104.242188 185.753906 C 104.210938 185.722656 104.179688 185.691406 104.144531 185.65625 Z M 104.144531 185.65625 " fill-opacity="1" fill-rule="nonzero"/><g clip-path="url(#21d4271526)"><path fill="#fdb800" d="M 91.925781 195.960938 C 90.753906 197.144531 88.824219 197.328125 87.53125 196.273438 C 86.03125 195.058594 85.953125 192.859375 87.285156 191.535156 C 87.496094 191.324219 87.695312 191.105469 87.886719 190.878906 C 87.949219 190.800781 88.015625 190.722656 88.074219 190.636719 C 88.640625 189.925781 89.085938 189.148438 89.414062 188.339844 C 89.515625 188.089844 89.605469 187.839844 89.679688 187.585938 C 89.695312 187.554688 89.707031 187.523438 89.714844 187.484375 C 89.777344 187.265625 89.835938 187.042969 89.882812 186.816406 C 89.933594 186.589844 89.976562 186.363281 90.015625 186.132812 C 90.058594 185.828125 90.085938 185.519531 90.097656 185.214844 C 90.105469 185.121094 90.105469 185.027344 90.105469 184.929688 C 90.105469 184.871094 90.109375 184.8125 90.109375 184.753906 C 90.109375 184.695312 90.105469 184.636719 90.105469 184.578125 C 90.105469 184.480469 90.105469 184.390625 90.097656 184.296875 C 90.097656 184.261719 90.09375 184.222656 90.09375 184.1875 C 90.09375 184.175781 90.09375 184.160156 90.09375 184.144531 C 90.089844 184.042969 90.082031 183.941406 90.070312 183.835938 C 90.066406 183.761719 90.054688 183.6875 90.046875 183.613281 C 90.035156 183.535156 90.027344 183.460938 90.019531 183.378906 C 89.996094 183.257812 89.976562 183.140625 89.957031 183.019531 C 89.949219 182.988281 89.945312 182.957031 89.941406 182.921875 C 89.921875 182.828125 89.894531 182.730469 89.875 182.628906 C 89.863281 182.578125 89.851562 182.523438 89.839844 182.472656 C 89.824219 182.398438 89.800781 182.328125 89.777344 182.253906 C 89.757812 182.179688 89.742188 182.101562 89.71875 182.027344 C 89.691406 181.933594 89.65625 181.835938 89.625 181.742188 C 89.609375 181.691406 89.59375 181.640625 89.578125 181.585938 C 89.535156 181.472656 89.496094 181.367188 89.449219 181.257812 C 89.433594 181.21875 89.421875 181.183594 89.410156 181.148438 C 89.367188 181.039062 89.3125 180.925781 89.265625 180.816406 C 89.246094 180.785156 89.234375 180.753906 89.222656 180.722656 C 89.164062 180.59375 89.097656 180.46875 89.035156 180.34375 C 89.027344 180.332031 89.019531 180.316406 89.011719 180.296875 C 88.871094 180.03125 88.714844 179.773438 88.550781 179.519531 C 88.542969 179.503906 88.535156 179.492188 88.527344 179.480469 C 88.460938 179.382812 88.390625 179.289062 88.324219 179.195312 C 88.300781 179.160156 88.273438 179.121094 88.25 179.085938 C 88.074219 178.851562 87.890625 178.625 87.691406 178.402344 C 87.671875 178.382812 87.648438 178.359375 87.628906 178.332031 C 87.53125 178.230469 87.429688 178.125 87.332031 178.019531 C 87.3125 178.007812 87.300781 177.992188 87.289062 177.980469 C 87.289062 177.980469 87.257812 177.945312 87.242188 177.929688 L 77.660156 168.417969 L 77.582031 168.335938 L 66.585938 157.414062 C 61.210938 152.078125 51.078125 154.351562 49.753906 164.238281 C 49.484375 166.222656 50.167969 168.222656 51.59375 169.640625 L 62.035156 180.011719 L 62.070312 180.042969 C 62.964844 180.933594 63.289062 182.246094 62.929688 183.457031 C 62.394531 185.242188 62.078125 187.105469 61.996094 189.011719 C 61.902344 188.917969 61.808594 188.828125 61.726562 188.746094 C 61.636719 188.65625 61.554688 188.574219 61.472656 188.496094 C 61.316406 188.335938 61.167969 188.191406 61.039062 188.0625 C 60.945312 187.972656 60.867188 187.890625 60.789062 187.816406 C 60.75 187.777344 60.714844 187.738281 60.683594 187.707031 C 60.648438 187.675781 60.613281 187.644531 60.585938 187.609375 C 60.519531 187.546875 60.460938 187.484375 60.410156 187.441406 C 60.347656 187.371094 59.984375 187.015625 59.984375 187.015625 L 48.679688 175.785156 L 48.382812 175.496094 C 42.097656 169.253906 42.097656 159.136719 48.378906 152.894531 C 54.664062 146.65625 64.851562 146.65625 71.132812 152.894531 C 71.230469 152.992188 71.328125 153.089844 71.425781 153.1875 L 91.835938 173.457031 C 92.351562 173.972656 92.832031 174.515625 93.265625 175.085938 C 98.050781 181.3125 97.601562 190.230469 91.925781 195.960938 Z M 91.925781 195.960938 " fill-opacity="1" fill-rule="nonzero"/></g><g clip-path="url(#59f7e7d3e5)"><path fill="#a361ff" d="M 75.613281 217.53125 L 71.527344 221.589844 L 71.234375 221.882812 C 64.953125 228.121094 54.765625 228.121094 48.480469 221.882812 C 42.199219 215.644531 42.199219 205.523438 48.480469 199.28125 C 48.578125 199.1875 48.679688 199.089844 48.777344 198.992188 L 60.40625 187.441406 C 60.457031 187.484375 60.515625 187.546875 60.582031 187.609375 C 60.609375 187.644531 60.640625 187.675781 60.679688 187.707031 C 60.710938 187.738281 60.746094 187.777344 60.785156 187.816406 C 60.863281 187.890625 60.941406 187.972656 61.035156 188.0625 C 61.164062 188.191406 61.3125 188.335938 61.46875 188.496094 L 61.722656 188.746094 C 61.804688 188.832031 61.898438 188.921875 61.992188 189.015625 C 61.980469 189.289062 61.96875 189.5625 61.96875 189.839844 L 61.96875 190 C 61.964844 190.984375 62.027344 191.953125 62.152344 192.910156 C 62.285156 193.949219 61.910156 194.988281 61.164062 195.726562 L 53.03125 203.804688 C 47.925781 208.878906 49.734375 218.210938 58.460938 220.265625 C 61.167969 220.898438 64.007812 220.019531 65.972656 218.066406 L 71.40625 212.671875 C 71.980469 212.097656 72.742188 211.808594 73.5 211.808594 C 74.214844 211.808594 74.929688 212.0625 75.496094 212.574219 C 76.953125 213.886719 77.007812 216.144531 75.613281 217.53125 Z M 75.613281 217.53125 " fill-opacity="1" fill-rule="nonzero"/></g><path fill="#3d9546" d="M 62.089844 189.113281 C 62.058594 189.082031 62.023438 189.046875 61.992188 189.015625 C 62.023438 189.046875 62.058594 189.082031 62.089844 189.113281 Z M 62.089844 189.113281 " fill-opacity="1" fill-rule="nonzero"/><path stroke-linecap="butt" transform="matrix(0.365441, 0, 0, 0.364583, 43.465586, 148.014014)" fill="none" stroke-linejoin="miter" d="M 73.133086 183.722289 C 73.133086 188.554432 77.06669 192.486575 81.94094 192.486575 C 86.8045 192.486575 90.748793 188.565146 90.748793 183.722289 C 90.748793 178.868717 86.8045 174.947288 81.94094 174.947288 C 77.07738 174.947288 73.133086 178.868717 73.133086 183.722289 Z M 73.133086 183.722289 " stroke="#706f6f" stroke-width="0.75" stroke-opacity="1" stroke-miterlimit="10"/><path fill="#2a3950" d="M 153.535156 169.5 C 156.640625 169.5 159.046875 170.15625 160.75 171.464844 C 162.457031 172.730469 163.636719 174.453125 164.292969 176.632812 C 164.992188 178.773438 165.34375 181.171875 165.34375 183.832031 L 165.34375 201.371094 C 165.34375 202.332031 165.015625 203.140625 164.359375 203.792969 C 163.746094 204.40625 162.980469 204.710938 162.0625 204.710938 C 161.101562 204.710938 160.3125 204.40625 159.703125 203.792969 C 159.089844 203.140625 158.78125 202.332031 158.78125 201.371094 L 158.78125 183.898438 C 158.78125 182.328125 158.5625 180.929688 158.125 179.710938 C 157.691406 178.445312 156.925781 177.441406 155.832031 176.699219 C 154.78125 175.914062 153.292969 175.519531 151.371094 175.519531 C 149.578125 175.519531 148.003906 175.914062 146.648438 176.699219 C 145.289062 177.441406 144.21875 178.445312 143.433594 179.710938 C 142.6875 180.929688 142.316406 182.328125 142.316406 183.898438 L 142.316406 201.371094 C 142.316406 202.332031 141.988281 203.140625 141.332031 203.792969 C 140.722656 204.40625 139.957031 204.710938 139.035156 204.710938 C 138.074219 204.710938 137.289062 204.40625 136.675781 203.792969 C 136.0625 203.140625 135.757812 202.332031 135.757812 201.371094 L 135.757812 173.625 C 135.757812 172.664062 136.0625 171.878906 136.675781 171.265625 C 137.289062 170.613281 138.074219 170.285156 139.035156 170.285156 C 139.957031 170.285156 140.722656 170.613281 141.332031 171.265625 C 141.988281 171.878906 142.316406 172.664062 142.316406 173.625 L 142.316406 177.289062 L 141.136719 177.941406 C 141.441406 176.984375 141.96875 176.023438 142.710938 175.0625 C 143.496094 174.058594 144.4375 173.144531 145.53125 172.3125 C 146.625 171.441406 147.847656 170.765625 149.207031 170.285156 C 150.5625 169.761719 152.003906 169.5 153.535156 169.5 Z M 153.535156 169.5 " fill-opacity="1" fill-rule="nonzero"/><path fill="#2a3950" d="M 189.222656 205.070312 C 185.589844 205.070312 182.441406 204.328125 179.773438 202.84375 C 177.105469 201.316406 175.027344 199.246094 173.542969 196.625 C 172.097656 193.964844 171.378906 190.933594 171.378906 187.527344 C 171.378906 183.691406 172.144531 180.417969 173.671875 177.710938 C 175.246094 174.964844 177.28125 172.867188 179.773438 171.429688 C 182.265625 169.945312 184.914062 169.203125 187.710938 169.203125 C 189.855469 169.203125 191.890625 169.640625 193.8125 170.511719 C 195.738281 171.34375 197.441406 172.519531 198.929688 174.046875 C 200.460938 175.53125 201.664062 177.296875 202.539062 179.347656 C 203.414062 181.355469 203.871094 183.558594 203.914062 185.957031 C 203.871094 186.832031 203.523438 187.550781 202.867188 188.117188 C 202.210938 188.683594 201.445312 188.96875 200.570312 188.96875 L 175.050781 188.96875 L 173.476562 183.40625 L 198.140625 183.40625 L 196.894531 184.582031 L 196.894531 182.949219 C 196.808594 181.421875 196.304688 180.089844 195.386719 178.957031 C 194.46875 177.777344 193.332031 176.882812 191.976562 176.273438 C 190.621094 175.617188 189.199219 175.289062 187.710938 175.289062 C 186.398438 175.289062 185.132812 175.507812 183.90625 175.945312 C 182.726562 176.335938 181.65625 176.992188 180.691406 177.910156 C 179.773438 178.824219 179.03125 180.046875 178.460938 181.574219 C 177.9375 183.058594 177.675781 184.910156 177.675781 187.136719 C 177.675781 189.535156 178.179688 191.628906 179.183594 193.417969 C 180.191406 195.207031 181.546875 196.605469 183.25 197.609375 C 184.957031 198.566406 186.835938 199.046875 188.894531 199.046875 C 190.511719 199.046875 191.84375 198.894531 192.894531 198.589844 C 193.945312 198.242188 194.820312 197.828125 195.519531 197.347656 C 196.21875 196.867188 196.832031 196.40625 197.355469 195.972656 C 198.011719 195.578125 198.667969 195.382812 199.324219 195.382812 C 200.109375 195.382812 200.765625 195.667969 201.292969 196.234375 C 201.816406 196.757812 202.078125 197.390625 202.078125 198.132812 C 202.078125 199.089844 201.597656 199.964844 200.636719 200.75 C 199.453125 201.882812 197.816406 202.886719 195.714844 203.761719 C 193.660156 204.632812 191.496094 205.070312 189.222656 205.070312 Z M 189.222656 205.070312 " fill-opacity="1" fill-rule="nonzero"/><path fill="#2a3950" d="M 213.3125 169.796875 C 214.40625 169.796875 215.300781 170.253906 216 171.171875 L 238.371094 199.3125 C 238.851562 199.878906 239.09375 200.535156 239.09375 201.277344 C 239.09375 202.148438 238.742188 202.914062 238.042969 203.566406 C 237.34375 204.222656 236.578125 204.546875 235.746094 204.546875 C 234.699219 204.546875 233.800781 204.089844 233.058594 203.175781 L 210.6875 175.03125 C 210.207031 174.464844 209.964844 173.808594 209.964844 173.070312 C 209.964844 172.152344 210.292969 171.390625 210.949219 170.777344 C 211.648438 170.125 212.4375 169.796875 213.3125 169.796875 Z M 213.378906 204.546875 C 212.632812 204.546875 211.914062 204.265625 211.210938 203.699219 C 210.511719 203.128906 210.164062 202.433594 210.164062 201.601562 C 210.164062 200.863281 210.425781 200.183594 210.949219 199.574219 L 221.378906 186.683594 L 224.726562 192.046875 L 216 203.175781 C 215.300781 204.089844 214.425781 204.546875 213.378906 204.546875 Z M 235.683594 169.796875 C 236.601562 169.796875 237.34375 170.101562 237.914062 170.710938 C 238.523438 171.28125 238.832031 171.957031 238.832031 172.742188 C 238.832031 173.089844 238.765625 173.460938 238.632812 173.855469 C 238.546875 174.203125 238.347656 174.53125 238.042969 174.835938 L 227.742188 187.730469 L 224.332031 182.886719 L 233.058594 171.300781 C 233.800781 170.296875 234.675781 169.796875 235.683594 169.796875 Z M 235.683594 169.796875 " fill-opacity="1" fill-rule="nonzero"/><path fill="#2a3950" d="M 270.847656 169.5 C 271.765625 169.5 272.53125 169.828125 273.144531 170.480469 C 273.800781 171.09375 274.128906 171.878906 274.128906 172.839844 L 274.128906 190.050781 C 274.128906 194.589844 272.859375 198.144531 270.324219 200.71875 C 267.785156 203.25 264.199219 204.515625 259.566406 204.515625 C 254.972656 204.515625 251.410156 203.25 248.871094 200.71875 C 246.378906 198.144531 245.132812 194.589844 245.132812 190.050781 L 245.132812 172.839844 C 245.132812 171.878906 245.4375 171.09375 246.050781 170.480469 C 246.664062 169.828125 247.449219 169.5 248.414062 169.5 C 249.332031 169.5 250.097656 169.828125 250.707031 170.480469 C 251.363281 171.09375 251.691406 171.878906 251.691406 172.839844 L 251.691406 190.050781 C 251.691406 192.886719 252.347656 195.003906 253.660156 196.398438 C 255.015625 197.796875 256.984375 198.492188 259.566406 198.492188 C 262.1875 198.492188 264.179688 197.796875 265.535156 196.398438 C 266.890625 195.003906 267.566406 192.886719 267.566406 190.050781 L 267.566406 172.839844 C 267.566406 171.878906 267.875 171.09375 268.488281 170.480469 C 269.097656 169.828125 269.886719 169.5 270.847656 169.5 Z M 270.847656 169.5 " fill-opacity="1" fill-rule="nonzero"/><g clip-path="url(#02c3dbb547)"><path fill="#2a3950" d="M 297.636719 169.5 C 300.871094 169.5 303.363281 170.308594 305.113281 171.921875 C 306.863281 173.492188 308.023438 175.628906 308.589844 178.335938 L 307.539062 178.007812 L 308 176.960938 C 308.570312 175.828125 309.421875 174.691406 310.558594 173.558594 C 311.738281 172.378906 313.140625 171.417969 314.757812 170.679688 C 316.375 169.894531 318.101562 169.5 319.941406 169.5 C 322.957031 169.5 325.296875 170.15625 326.957031 171.464844 C 328.621094 172.730469 329.78125 174.453125 330.4375 176.632812 C 331.089844 178.773438 331.417969 181.171875 331.417969 183.832031 L 331.417969 201.175781 C 331.417969 202.136719 331.113281 202.945312 330.5 203.597656 C 329.890625 204.210938 329.101562 204.515625 328.140625 204.515625 C 327.222656 204.515625 326.433594 204.210938 325.777344 203.597656 C 325.164062 202.945312 324.859375 202.136719 324.859375 201.175781 L 324.859375 183.898438 C 324.859375 182.371094 324.640625 180.976562 324.203125 179.710938 C 323.808594 178.445312 323.089844 177.441406 322.039062 176.699219 C 321.03125 175.914062 319.632812 175.519531 317.839844 175.519531 C 316.132812 175.519531 314.605469 175.914062 313.25 176.699219 C 311.9375 177.441406 310.910156 178.445312 310.164062 179.710938 C 309.421875 180.976562 309.050781 182.371094 309.050781 183.898438 L 309.050781 201.175781 C 309.050781 202.136719 308.742188 202.945312 308.132812 203.597656 C 307.519531 204.210938 306.730469 204.515625 305.769531 204.515625 C 304.808594 204.515625 304.019531 204.210938 303.40625 203.597656 C 302.796875 202.945312 302.488281 202.136719 302.488281 201.175781 L 302.488281 183.832031 C 302.488281 182.304688 302.269531 180.910156 301.832031 179.644531 C 301.441406 178.378906 300.742188 177.375 299.734375 176.632812 C 298.730469 175.890625 297.328125 175.519531 295.535156 175.519531 C 293.832031 175.519531 292.320312 175.890625 291.007812 176.632812 C 289.699219 177.375 288.667969 178.378906 287.925781 179.644531 C 287.226562 180.910156 286.875 182.304688 286.875 183.832031 L 286.875 201.175781 C 286.875 202.136719 286.546875 202.945312 285.890625 203.597656 C 285.28125 204.210938 284.515625 204.515625 283.597656 204.515625 C 282.632812 204.515625 281.847656 204.210938 281.234375 203.597656 C 280.621094 202.945312 280.316406 202.136719 280.316406 201.175781 L 280.316406 173.425781 C 280.316406 172.46875 280.621094 171.683594 281.234375 171.070312 C 281.847656 170.417969 282.632812 170.089844 283.597656 170.089844 C 284.515625 170.089844 285.28125 170.417969 285.890625 171.070312 C 286.546875 171.683594 286.875 172.46875 286.875 173.425781 L 286.875 177.289062 L 285.628906 178.007812 C 285.9375 177.046875 286.4375 176.066406 287.140625 175.0625 C 287.839844 174.058594 288.714844 173.144531 289.761719 172.3125 C 290.855469 171.484375 292.058594 170.808594 293.371094 170.285156 C 294.683594 169.761719 296.105469 169.5 297.636719 169.5 Z M 297.636719 169.5 " fill-opacity="1" fill-rule="nonzero"/></g></svg>