<svg xmlns="http://www.w3.org/2000/svg" xmlns:xlink="http://www.w3.org/1999/xlink" width="500" zoomAndPan="magnify" viewBox="0 0 375 374.999991" height="500" preserveAspectRatio="xMidYMid meet" version="1.0"><defs><g/><clipPath id="62cb97ed69"><path d="M 8.15625 13.632812 L 366.84375 13.632812 L 366.84375 360.003906 L 8.15625 360.003906 Z M 8.15625 13.632812 " clip-rule="nonzero"/></clipPath><clipPath id="6baf0626b4"><path d="M 187.5 13.632812 C 88.449219 13.632812 8.15625 91.171875 8.15625 186.820312 C 8.15625 282.464844 88.449219 360.003906 187.5 360.003906 C 286.550781 360.003906 366.84375 282.464844 366.84375 186.820312 C 366.84375 91.171875 286.550781 13.632812 187.5 13.632812 Z M 187.5 13.632812 " clip-rule="nonzero"/></clipPath><clipPath id="41445bcd9b"><path d="M 8.15625 13.632812 L 366.65625 13.632812 L 366.65625 360.003906 L 8.15625 360.003906 Z M 8.15625 13.632812 " clip-rule="nonzero"/></clipPath><clipPath id="18581ea391"><path d="M 187.5 13.632812 C 88.453125 13.632812 8.15625 91.171875 8.15625 186.816406 C 8.15625 282.464844 88.453125 360.003906 187.5 360.003906 C 286.546875 360.003906 366.84375 282.464844 366.84375 186.816406 C 366.84375 91.171875 286.546875 13.632812 187.5 13.632812 Z M 187.5 13.632812 " clip-rule="nonzero"/></clipPath></defs><g clip-path="url(#62cb97ed69)"><g clip-path="url(#6baf0626b4)"><path fill="#ffffff" d="M 8.15625 13.632812 L 366.84375 13.632812 L 366.84375 360.003906 L 8.15625 360.003906 Z M 8.15625 13.632812 " fill-opacity="1" fill-rule="nonzero"/></g></g><g clip-path="url(#41445bcd9b)"><g clip-path="url(#18581ea391)"><path stroke-linecap="butt" transform="matrix(0.75, 0, 0, 0.75, 8.156628, 13.63243)" fill="none" stroke-linejoin="miter" d="M 239.124511 0.000509807 C 107.062003 0.000509807 -0.000504486 103.385933 -0.000504486 230.911983 C -0.000504486 358.443242 107.062003 461.828665 239.124511 461.828665 C 371.18702 461.828665 478.249527 358.443242 478.249527 230.911983 C 478.249527 103.385933 371.18702 0.000509807 239.124511 0.000509807 Z M 239.124511 0.000509807 " stroke="#000000" stroke-width="8" stroke-opacity="1" stroke-miterlimit="4"/></g></g><g fill="#000000" fill-opacity="1"><g transform="translate(82.369378, 209.31854)"><g><path d="M 5.171875 0 L 5.171875 -44.21875 L 20.4375 -44.21875 L 20.4375 -37.84375 L 20.609375 -37.84375 C 20.722656 -38.070312 20.90625 -38.359375 21.15625 -38.703125 C 21.414062 -39.046875 21.976562 -39.648438 22.84375 -40.515625 C 23.707031 -41.378906 24.625 -42.15625 25.59375 -42.84375 C 26.570312 -43.53125 27.835938 -44.144531 29.390625 -44.6875 C 30.941406 -45.238281 32.523438 -45.515625 34.140625 -45.515625 C 35.804688 -45.515625 37.441406 -45.285156 39.046875 -44.828125 C 40.660156 -44.367188 41.835938 -43.910156 42.578125 -43.453125 L 43.796875 -42.75 L 37.40625 -29.828125 C 35.507812 -31.429688 32.867188 -32.234375 29.484375 -32.234375 C 27.640625 -32.234375 26.054688 -31.832031 24.734375 -31.03125 C 23.410156 -30.226562 22.476562 -29.25 21.9375 -28.09375 C 21.394531 -26.945312 21.007812 -25.972656 20.78125 -25.171875 C 20.550781 -24.367188 20.4375 -23.738281 20.4375 -23.28125 L 20.4375 0 Z M 5.171875 0 "/></g></g></g><g fill="#000000" fill-opacity="1"><g transform="translate(117.194712, 209.31854)"><g><path d="M 49.90625 -20 L 17.84375 -20 C 17.84375 -16.894531 18.847656 -14.59375 20.859375 -13.09375 C 22.867188 -11.601562 25.050781 -10.859375 27.40625 -10.859375 C 29.882812 -10.859375 31.835938 -11.1875 33.265625 -11.84375 C 34.703125 -12.507812 36.34375 -13.820312 38.1875 -15.78125 L 49.21875 -10.265625 C 44.625 -2.554688 36.984375 1.296875 26.296875 1.296875 C 19.628906 1.296875 13.910156 -0.984375 9.140625 -5.546875 C 4.367188 -10.117188 1.984375 -15.625 1.984375 -22.0625 C 1.984375 -28.5 4.367188 -34.015625 9.140625 -38.609375 C 13.910156 -43.210938 19.628906 -45.515625 26.296875 -45.515625 C 33.304688 -45.515625 39.007812 -43.488281 43.40625 -39.4375 C 47.800781 -35.382812 50 -29.59375 50 -22.0625 C 50 -21.03125 49.96875 -20.34375 49.90625 -20 Z M 18.28125 -28.453125 L 35.078125 -28.453125 C 34.734375 -30.742188 33.828125 -32.507812 32.359375 -33.75 C 30.898438 -34.988281 29.019531 -35.609375 26.71875 -35.609375 C 24.195312 -35.609375 22.1875 -34.945312 20.6875 -33.625 C 19.195312 -32.300781 18.394531 -30.578125 18.28125 -28.453125 Z M 18.28125 -28.453125 "/></g></g></g><g fill="#000000" fill-opacity="1"><g transform="translate(161.071383, 209.31854)"><g><path d="M 47.921875 -44.21875 L 26.03125 -11.640625 L 46.203125 -11.640625 L 46.203125 0 L 0.4375 0 L 22.328125 -32.578125 L 4.046875 -32.578125 L 4.046875 -44.21875 Z M 47.921875 -44.21875 "/></g></g></g><g fill="#000000" fill-opacity="1"><g transform="translate(201.327523, 209.31854)"><g><path d="M 9.34375 -5.25 C 4.4375 -9.625 1.984375 -15.226562 1.984375 -22.0625 C 1.984375 -28.90625 4.539062 -34.523438 9.65625 -38.921875 C 14.769531 -43.316406 21.09375 -45.515625 28.625 -45.515625 C 36.03125 -45.515625 42.273438 -43.300781 47.359375 -38.875 C 52.453125 -34.445312 55 -28.84375 55 -22.0625 C 55 -15.28125 52.507812 -9.691406 47.53125 -5.296875 C 42.5625 -0.898438 36.257812 1.296875 28.625 1.296875 C 20.6875 1.296875 14.257812 -0.882812 9.34375 -5.25 Z M 21.15625 -29.5625 C 19.175781 -27.613281 18.1875 -25.113281 18.1875 -22.0625 C 18.1875 -19.019531 19.132812 -16.535156 21.03125 -14.609375 C 22.925781 -12.679688 25.425781 -11.71875 28.53125 -11.71875 C 31.519531 -11.71875 33.976562 -12.691406 35.90625 -14.640625 C 37.832031 -16.597656 38.796875 -19.070312 38.796875 -22.0625 C 38.796875 -25.113281 37.800781 -27.613281 35.8125 -29.5625 C 33.832031 -31.519531 31.40625 -32.5 28.53125 -32.5 C 25.601562 -32.5 23.144531 -31.519531 21.15625 -29.5625 Z M 21.15625 -29.5625 "/></g></g></g><g fill="#000000" fill-opacity="1"><g transform="translate(250.203966, 209.31854)"><g><path d="M 24.390625 -45.515625 C 26.921875 -45.515625 29.421875 -45.226562 31.890625 -44.65625 C 34.367188 -44.082031 36.207031 -43.503906 37.40625 -42.921875 L 39.21875 -42.0625 L 34.21875 -32.0625 C 30.769531 -33.90625 27.492188 -34.828125 24.390625 -34.828125 C 22.671875 -34.828125 21.453125 -34.640625 20.734375 -34.265625 C 20.015625 -33.890625 19.65625 -33.1875 19.65625 -32.15625 C 19.65625 -31.925781 19.679688 -31.695312 19.734375 -31.46875 C 19.796875 -31.238281 19.910156 -31.019531 20.078125 -30.8125 C 20.253906 -30.613281 20.414062 -30.441406 20.5625 -30.296875 C 20.707031 -30.148438 20.953125 -29.988281 21.296875 -29.8125 C 21.640625 -29.644531 21.910156 -29.519531 22.109375 -29.4375 C 22.304688 -29.351562 22.632812 -29.222656 23.09375 -29.046875 C 23.5625 -28.878906 23.910156 -28.75 24.140625 -28.65625 C 24.367188 -28.570312 24.753906 -28.441406 25.296875 -28.265625 C 25.847656 -28.097656 26.265625 -27.988281 26.546875 -27.9375 C 28.328125 -27.414062 29.878906 -26.835938 31.203125 -26.203125 C 32.523438 -25.566406 33.914062 -24.703125 35.375 -23.609375 C 36.84375 -22.523438 37.976562 -21.148438 38.78125 -19.484375 C 39.59375 -17.816406 40 -15.921875 40 -13.796875 C 40 -3.734375 33.015625 1.296875 19.046875 1.296875 C 15.890625 1.296875 12.890625 0.804688 10.046875 -0.171875 C 7.203125 -1.148438 5.144531 -2.128906 3.875 -3.109375 L 1.984375 -4.65625 L 8.1875 -15.078125 C 8.644531 -14.679688 9.25 -14.207031 10 -13.65625 C 10.75 -13.113281 12.097656 -12.367188 14.046875 -11.421875 C 16.003906 -10.472656 17.703125 -10 19.140625 -10 C 22.296875 -10 23.875 -11.0625 23.875 -13.1875 C 23.875 -14.164062 23.472656 -14.925781 22.671875 -15.46875 C 21.867188 -16.019531 20.503906 -16.640625 18.578125 -17.328125 C 16.648438 -18.015625 15.140625 -18.644531 14.046875 -19.21875 C 11.285156 -20.65625 9.101562 -22.28125 7.5 -24.09375 C 5.894531 -25.90625 5.09375 -28.304688 5.09375 -31.296875 C 5.09375 -35.773438 6.828125 -39.265625 10.296875 -41.765625 C 13.773438 -44.265625 18.472656 -45.515625 24.390625 -45.515625 Z M 24.390625 -45.515625 "/></g></g></g></svg>